<?xml version="1.0" encoding="utf-8"?>
<!-- Generator: Adobe Illustrator 27.2.0, SVG Export Plug-In . SVG Version: 6.00 Build 0)  -->
<svg version="1.1" id="_x32_" xmlns="http://www.w3.org/2000/svg" xmlns:xlink="http://www.w3.org/1999/xlink" x="0px" y="0px"
	 viewBox="0 0 800 800" style="enable-background:new 0 0 800 800;" xml:space="preserve">
<style type="text/css">
	.st0{fill:#383835;}
	.st1{fill:#20201D;}
</style>
<rect y="0" class="st0" width="800" height="800"/>
<g>
	<path class="st1" d="M556.5,610.5c-2.9-2.8-4.9-5.9-6.3-9.3c-2.1-5-2.7-10.7-1.7-16.1s3.4-10.4,7.5-14.7l53.6-54.9
		c10.1-10.3,17.7-22.3,22.6-35c7.5-19.1,9.1-39.8,5-59.6c-4-19.8-14-38.8-29.5-53.8c-10.3-10.1-22.3-17.7-35-22.6
		c-19.1-7.5-39.8-9.1-59.6-5c-19.8,4.1-38.8,14-53.8,29.5l-87.5,89.6c-2.8,2.9-5.9,4.9-9.3,6.3c-5,2.1-10.7,2.7-16.1,1.7
		c-5.4-1-10.4-3.4-14.7-7.6c-2.9-2.8-4.9-5.9-6.3-9.3c-2.1-5-2.7-10.7-1.7-16c1-5.4,3.4-10.4,7.5-14.7l22.6-23.2
		c10.1-10.3,17.7-22.3,22.6-35c7.5-19.1,9.1-39.8,5-59.6c-3.9-19-13.3-37.2-27.8-52l-11.9-39.8c-6.8-22.6-24.9-40-47.7-45.9
		l-45.3-11.7c-8.4-2.2-17.4,0.3-23.5,6.5l-16.7,17c-6.1,6.3-8.3,15.2-6,23.7l12.9,45c6.5,22.7,24.3,40.3,47.1,46.6l37.2,10.2
		c0,0,3.5,7.3,5,10.7c2.1,5,2.7,10.7,1.7,16.1c-1,5.4-3.4,10.4-7.6,14.7l-22.6,23.2c-10.1,10.3-17.7,22.3-22.6,35
		c-7.5,19.1-9.1,39.8-5,59.6c4,19.8,14,38.8,29.5,53.8c10.3,10.1,22.3,17.7,35,22.6c19.1,7.5,39.8,9.1,59.6,5
		c19.8-4.1,38.8-14,53.8-29.5l87.4-89.7c2.8-2.9,5.9-4.9,9.3-6.3c5-2.1,10.7-2.7,16-1.7c5.4,1,10.4,3.4,14.7,7.5
		c2.9,2.8,4.9,5.9,6.3,9.3c2.2,5,2.7,10.7,1.7,16.1c-1,5.4-3.4,10.4-7.5,14.7L501,517c-10.1,10.3-17.7,22.3-22.6,35
		c-7.5,19.1-9.1,39.8-5,59.6c4,19.8,14,38.8,29.5,53.8c46.2,45.1,131.5,12.7,138.3-20.3C616.9,646.9,578.9,636.6,556.5,610.5z"/>
	<path class="st1" d="M216.7,160.1c0,0-36.2-34.1-35.7-47.7c-8.1,8.1,0.6,22.8,0.6,22.8s-14.7-8.7-22.8-0.6
		c13.6-0.6,47.7,35.6,47.7,35.6L216.7,160.1z"/>
</g>
</svg>
